<mxfile host="app.diagrams.net" agent="Mozilla/5.0 (Windows NT 10.0; Win64; x64) AppleWebKit/537.36 (KHTML, like Gecko) Chrome/138.0.0.0 Safari/537.36 Edg/138.0.0.0" version="28.0.6">
  <diagram name="Страница — 1" id="X-SL5yTy-bum_6qAFHls">
    <mxGraphModel dx="1765" dy="606" grid="1" gridSize="10" guides="1" tooltips="1" connect="1" arrows="1" fold="1" page="1" pageScale="1" pageWidth="827" pageHeight="1169" math="0" shadow="0">
      <root>
        <mxCell id="0" />
        <mxCell id="1" parent="0" />
        <mxCell id="eeV5CS2RcoQda0E3SMte-6" value="Телеком-оператор" style="rounded=1;whiteSpace=wrap;html=1;" vertex="1" parent="1">
          <mxGeometry x="140" y="560" width="140" height="55" as="geometry" />
        </mxCell>
        <mxCell id="eeV5CS2RcoQda0E3SMte-13" style="edgeStyle=orthogonalEdgeStyle;rounded=0;orthogonalLoop=1;jettySize=auto;html=1;exitX=0.5;exitY=1;exitDx=0;exitDy=0;entryX=0.5;entryY=0;entryDx=0;entryDy=0;" edge="1" parent="1" source="eeV5CS2RcoQda0E3SMte-8" target="eeV5CS2RcoQda0E3SMte-9">
          <mxGeometry relative="1" as="geometry" />
        </mxCell>
        <mxCell id="eeV5CS2RcoQda0E3SMte-8" value="&lt;span style=&quot;font-size: 14px;&quot;&gt;АБС&lt;/span&gt;" style="rounded=1;whiteSpace=wrap;html=1;fillColor=#dae8fc;gradientColor=#7ea6e0;strokeColor=#6c8ebf;" vertex="1" parent="1">
          <mxGeometry x="120" y="270" width="180" height="160" as="geometry" />
        </mxCell>
        <mxCell id="eeV5CS2RcoQda0E3SMte-14" style="edgeStyle=orthogonalEdgeStyle;rounded=0;orthogonalLoop=1;jettySize=auto;html=1;exitX=0.5;exitY=1;exitDx=0;exitDy=0;entryX=0.5;entryY=0;entryDx=0;entryDy=0;" edge="1" parent="1" source="eeV5CS2RcoQda0E3SMte-9" target="eeV5CS2RcoQda0E3SMte-6">
          <mxGeometry relative="1" as="geometry" />
        </mxCell>
        <mxCell id="eeV5CS2RcoQda0E3SMte-9" value="&lt;span style=&quot;font-size: 14px;&quot;&gt;СМС шлюз&lt;/span&gt;" style="rounded=1;whiteSpace=wrap;html=1;fillColor=#fa6800;strokeColor=#C73500;fontColor=#000000;gradientColor=#FFF2CC;" vertex="1" parent="1">
          <mxGeometry x="140" y="470" width="140" height="40" as="geometry" />
        </mxCell>
        <mxCell id="eeV5CS2RcoQda0E3SMte-16" style="edgeStyle=orthogonalEdgeStyle;rounded=0;orthogonalLoop=1;jettySize=auto;html=1;entryX=1;entryY=0.5;entryDx=0;entryDy=0;" edge="1" parent="1" source="eeV5CS2RcoQda0E3SMte-10" target="eeV5CS2RcoQda0E3SMte-8">
          <mxGeometry relative="1" as="geometry" />
        </mxCell>
        <mxCell id="eeV5CS2RcoQda0E3SMte-10" value="Система кол-центра" style="rounded=1;whiteSpace=wrap;html=1;fillColor=#f0a30a;strokeColor=#BD7000;fontColor=#000000;gradientColor=light-dark(#e0c200, #ededed);" vertex="1" parent="1">
          <mxGeometry x="390" y="327.5" width="130.5" height="45" as="geometry" />
        </mxCell>
        <mxCell id="eeV5CS2RcoQda0E3SMte-15" value="Оповещение клиентов" style="text;html=1;align=center;verticalAlign=middle;whiteSpace=wrap;rounded=0;" vertex="1" parent="1">
          <mxGeometry x="220" y="520" width="60" height="30" as="geometry" />
        </mxCell>
        <mxCell id="eeV5CS2RcoQda0E3SMte-19" style="edgeStyle=orthogonalEdgeStyle;rounded=0;orthogonalLoop=1;jettySize=auto;html=1;exitX=0.5;exitY=0.5;exitDx=0;exitDy=0;exitPerimeter=0;entryX=1;entryY=0.5;entryDx=0;entryDy=0;" edge="1" parent="1" source="eeV5CS2RcoQda0E3SMte-18" target="eeV5CS2RcoQda0E3SMte-10">
          <mxGeometry relative="1" as="geometry" />
        </mxCell>
        <mxCell id="eeV5CS2RcoQda0E3SMte-18" value="Сотрудник call центра" style="shape=umlActor;verticalLabelPosition=bottom;verticalAlign=top;html=1;outlineConnect=0;" vertex="1" parent="1">
          <mxGeometry x="640" y="320" width="30" height="60" as="geometry" />
        </mxCell>
        <mxCell id="eeV5CS2RcoQda0E3SMte-21" value="заводит обращение" style="text;html=1;align=center;verticalAlign=middle;whiteSpace=wrap;rounded=0;" vertex="1" parent="1">
          <mxGeometry x="550" y="320" width="60" height="30" as="geometry" />
        </mxCell>
        <mxCell id="eeV5CS2RcoQda0E3SMte-29" style="edgeStyle=orthogonalEdgeStyle;rounded=0;orthogonalLoop=1;jettySize=auto;html=1;entryX=0;entryY=0.5;entryDx=0;entryDy=0;" edge="1" parent="1" source="eeV5CS2RcoQda0E3SMte-23" target="eeV5CS2RcoQda0E3SMte-28">
          <mxGeometry relative="1" as="geometry">
            <Array as="points">
              <mxPoint x="60" y="460" />
              <mxPoint x="60" y="190" />
            </Array>
          </mxGeometry>
        </mxCell>
        <mxCell id="eeV5CS2RcoQda0E3SMte-34" style="edgeStyle=orthogonalEdgeStyle;rounded=0;orthogonalLoop=1;jettySize=auto;html=1;entryX=0;entryY=0.5;entryDx=0;entryDy=0;" edge="1" parent="1" source="eeV5CS2RcoQda0E3SMte-23" target="eeV5CS2RcoQda0E3SMte-32">
          <mxGeometry relative="1" as="geometry">
            <Array as="points">
              <mxPoint x="60" y="460" />
              <mxPoint x="60" y="105" />
            </Array>
          </mxGeometry>
        </mxCell>
        <mxCell id="eeV5CS2RcoQda0E3SMte-23" value="Сотрудник бэк офиса" style="shape=umlActor;verticalLabelPosition=bottom;verticalAlign=top;html=1;outlineConnect=0;" vertex="1" parent="1">
          <mxGeometry x="-20" y="430" width="30" height="60" as="geometry" />
        </mxCell>
        <mxCell id="eeV5CS2RcoQda0E3SMte-30" style="edgeStyle=orthogonalEdgeStyle;rounded=0;orthogonalLoop=1;jettySize=auto;html=1;entryX=0;entryY=0.5;entryDx=0;entryDy=0;" edge="1" parent="1" source="eeV5CS2RcoQda0E3SMte-24" target="eeV5CS2RcoQda0E3SMte-28">
          <mxGeometry relative="1" as="geometry">
            <Array as="points">
              <mxPoint x="60" y="300" />
              <mxPoint x="60" y="190" />
            </Array>
          </mxGeometry>
        </mxCell>
        <mxCell id="eeV5CS2RcoQda0E3SMte-33" style="edgeStyle=orthogonalEdgeStyle;rounded=0;orthogonalLoop=1;jettySize=auto;html=1;entryX=0;entryY=0.5;entryDx=0;entryDy=0;" edge="1" parent="1" source="eeV5CS2RcoQda0E3SMte-24" target="eeV5CS2RcoQda0E3SMte-32">
          <mxGeometry relative="1" as="geometry">
            <Array as="points">
              <mxPoint x="60" y="300" />
              <mxPoint x="60" y="105" />
            </Array>
          </mxGeometry>
        </mxCell>
        <mxCell id="eeV5CS2RcoQda0E3SMte-35" style="edgeStyle=orthogonalEdgeStyle;rounded=0;orthogonalLoop=1;jettySize=auto;html=1;entryX=0;entryY=0.5;entryDx=0;entryDy=0;" edge="1" parent="1" source="eeV5CS2RcoQda0E3SMte-24" target="eeV5CS2RcoQda0E3SMte-8">
          <mxGeometry relative="1" as="geometry">
            <Array as="points">
              <mxPoint x="60" y="300" />
              <mxPoint x="60" y="350" />
            </Array>
          </mxGeometry>
        </mxCell>
        <mxCell id="eeV5CS2RcoQda0E3SMte-24" value="Сотрудник фронт офиса" style="shape=umlActor;verticalLabelPosition=bottom;verticalAlign=top;html=1;outlineConnect=0;" vertex="1" parent="1">
          <mxGeometry x="-20" y="270" width="30" height="60" as="geometry" />
        </mxCell>
        <mxCell id="eeV5CS2RcoQda0E3SMte-27" style="edgeStyle=orthogonalEdgeStyle;rounded=0;orthogonalLoop=1;jettySize=auto;html=1;entryX=0;entryY=0.5;entryDx=0;entryDy=0;" edge="1" parent="1" source="eeV5CS2RcoQda0E3SMte-23" target="eeV5CS2RcoQda0E3SMte-8">
          <mxGeometry relative="1" as="geometry">
            <Array as="points">
              <mxPoint x="60" y="460" />
              <mxPoint x="60" y="350" />
            </Array>
          </mxGeometry>
        </mxCell>
        <mxCell id="eeV5CS2RcoQda0E3SMte-28" value="&lt;span style=&quot;font-size: 14px;&quot;&gt;Email&lt;/span&gt;" style="rounded=1;whiteSpace=wrap;html=1;fillColor=#99FFFF;gradientColor=#66B2FF;strokeColor=#82b366;" vertex="1" parent="1">
          <mxGeometry x="150" y="150" width="140" height="80" as="geometry" />
        </mxCell>
        <mxCell id="eeV5CS2RcoQda0E3SMte-32" value="&lt;span style=&quot;font-size: 14px;&quot;&gt;Excel&lt;/span&gt;" style="rounded=1;whiteSpace=wrap;html=1;fillColor=#d5e8d4;gradientColor=#97d077;strokeColor=#82b366;" vertex="1" parent="1">
          <mxGeometry x="150" y="70" width="140" height="70" as="geometry" />
        </mxCell>
        <mxCell id="eeV5CS2RcoQda0E3SMte-41" style="edgeStyle=orthogonalEdgeStyle;rounded=0;orthogonalLoop=1;jettySize=auto;html=1;" edge="1" parent="1" source="eeV5CS2RcoQda0E3SMte-37" target="eeV5CS2RcoQda0E3SMte-8">
          <mxGeometry relative="1" as="geometry" />
        </mxCell>
        <mxCell id="eeV5CS2RcoQda0E3SMte-37" value="&lt;div&gt;Система партнёрского кол-центра&lt;/div&gt;" style="rounded=1;whiteSpace=wrap;html=1;fillColor=#76608a;strokeColor=#432D57;fontColor=#000000;gradientColor=#FF3399;" vertex="1" parent="1">
          <mxGeometry x="390" y="250" width="130" height="40" as="geometry" />
        </mxCell>
        <mxCell id="eeV5CS2RcoQda0E3SMte-38" style="edgeStyle=orthogonalEdgeStyle;rounded=0;orthogonalLoop=1;jettySize=auto;html=1;exitX=0.5;exitY=0.5;exitDx=0;exitDy=0;exitPerimeter=0;entryX=1;entryY=0.5;entryDx=0;entryDy=0;" edge="1" parent="1" source="eeV5CS2RcoQda0E3SMte-39" target="eeV5CS2RcoQda0E3SMte-37">
          <mxGeometry relative="1" as="geometry">
            <mxPoint x="520" y="220" as="targetPoint" />
          </mxGeometry>
        </mxCell>
        <mxCell id="eeV5CS2RcoQda0E3SMte-39" value="Сотрудник call центра" style="shape=umlActor;verticalLabelPosition=bottom;verticalAlign=top;html=1;outlineConnect=0;" vertex="1" parent="1">
          <mxGeometry x="639" y="190" width="30" height="60" as="geometry" />
        </mxCell>
        <mxCell id="eeV5CS2RcoQda0E3SMte-40" value="работает по готовым скриптам звонков" style="text;html=1;align=center;verticalAlign=middle;whiteSpace=wrap;rounded=0;" vertex="1" parent="1">
          <mxGeometry x="520" y="190" width="119" height="30" as="geometry" />
        </mxCell>
      </root>
    </mxGraphModel>
  </diagram>
</mxfile>
